# xmcd CD database file
# Copyright (C) 1993-1998 Ti Kan
#
# Track frame offsets:
#	200
#	13612
#	23617
#	35222
#	45815
#	58185
#	71122
#	79775
#	90690
#	100705
#	116402
#	126197
#
# Disc length: 1837 seconds
#
# Revision: 0
# Processed by: cddbd v1.4b41PL1 Copyright (c) Steve Scherf et al.
# Submitted via: CDmax 1.5.3
#
DISCID=94072b0c
DTITLE=Waylon Jennings - Ol' Waylon Sings Ol' Hank
DYEAR=1900
DGENRE=
TTITLE0=Jambalaya (On The Bayou)
TTITLE1=Half As Much
TTITLE2=I'm So Lonesome I Could Cry
TTITLE3=Blues Come Around
TTITLE4=Why Should We Try Anymore
TTITLE5=Be Careful Of Stones You Throw
TTITLE6=I Won't Be Home Anymore
TTITLE7=Mansion On The Hill
TTITLE8=Hey, Good Lookin'
TTITLE9=Cold, Cold Heart
TTITLE10=Honky Tonkin'
TTITLE11=They'll Never Take Her Love From Me
EXTD=
EXTT0=
EXTT1=
EXTT2=
EXTT3=
EXTT4=
EXTT5=
EXTT6=
EXTT7=
EXTT8=
EXTT9=
EXTT10=
EXTT11=
PLAYORDER=
